<svg width="27" height="27" viewBox="0 0 27 27" fill="none" xmlns="http://www.w3.org/2000/svg">
<g clip-path="url(#clip0_20_6)">
<path d="M2.78767 2.73834C1.99353 2.7873 1.25136 3.14972 0.724432 3.74588C0.197506 4.34204 -0.0710158 5.1231 -0.0220607 5.91725L1.08545 22.6261C1.13441 23.4203 1.49683 24.1624 2.09299 24.6894C2.68915 25.2163 3.47021 25.4848 4.26435 25.4359L9.79778 24.6975C10.5919 24.6486 11.3341 24.2861 11.861 23.69C12.3879 23.0938 12.6565 22.3128 12.6075 21.5186L11.5 4.80973C11.451 4.01559 11.0886 3.27342 10.4925 2.74649C9.8963 2.21957 9.11524 1.95105 8.3211 2L2.78767 2.73834ZM2.87996 4.2355L8.41339 3.49716C8.81046 3.47268 9.20099 3.60694 9.49907 3.87041C9.79715 4.13387 9.97836 4.50495 10.0028 4.90202L11.1104 21.6109C11.1348 22.008 11.0006 22.3985 10.7371 22.6966C10.4736 22.9947 10.1026 23.1759 9.70549 23.2004L4.17206 23.9387C3.77499 23.9632 3.38446 23.8289 3.08638 23.5655C2.7883 23.302 2.60709 22.9309 2.58261 22.5338L1.4751 5.82495C1.45062 5.42788 1.58488 5.03735 1.84834 4.73927C2.11181 4.44119 2.48289 4.25998 2.87996 4.2355Z" fill="white"/>
<path d="M23.8728 2.09512L11.4563 0.419025C10.6331 0.307892 9.79936 0.528352 9.13864 1.03191C8.47793 1.53546 8.0443 2.28086 7.93317 3.10412L5.41902 21.7288C5.30789 22.5521 5.52835 23.3858 6.03191 24.0465C6.53546 24.7072 7.28086 25.1409 8.10412 25.252L20.5206 26.9281C21.3439 27.0392 22.1776 26.8188 22.8383 26.3152C23.499 25.8117 23.9326 25.0663 24.0437 24.243L26.5579 5.61827C26.669 4.795 26.4486 3.96131 25.945 3.30059C25.4415 2.63988 24.6961 2.20626 23.8728 2.09512ZM17.1835 10.6742L16.8692 13.0023L19.1973 13.3166C19.4032 13.3443 19.5895 13.4527 19.7154 13.6179C19.8413 13.7831 19.8964 13.9915 19.8686 14.1973C19.8408 14.4032 19.7324 14.5895 19.5672 14.7154C19.4021 14.8413 19.1936 14.8964 18.9878 14.8686L16.6597 14.5543L16.3455 16.8824C16.3177 17.0882 16.2093 17.2746 16.0441 17.4005C15.8789 17.5264 15.6705 17.5815 15.4647 17.5537C15.2589 17.5259 15.0725 17.4175 14.9466 17.2523C14.8207 17.0872 14.7656 16.8787 14.7934 16.6729L15.1077 14.3448L12.7796 14.0306C12.5738 14.0028 12.3874 13.8944 12.2615 13.7292C12.1356 13.564 12.0805 13.3556 12.1083 13.1498C12.1361 12.944 12.2445 12.7576 12.4097 12.6317C12.5749 12.5058 12.7833 12.4507 12.9891 12.4785L15.3172 12.7928L15.6315 10.4647C15.6592 10.2589 15.7676 10.0725 15.9328 9.94663C16.098 9.82074 16.3064 9.76562 16.5122 9.79341C16.7181 9.82119 16.9044 9.92959 17.0303 10.0948C17.1562 10.26 17.2113 10.4684 17.1835 10.6742Z" fill="white"/>
</g>
<defs>
<clipPath id="clip0_20_6">
<rect width="27" height="27" fill="white"/>
</clipPath>
</defs>
</svg>
