<svg width="24" height="24" viewBox="0 0 24 24" fill="none" xmlns="http://www.w3.org/2000/svg">
<path d="M4.85959 9.77569C6.8416 14.0945 10.3634 17.5174 14.7353 19.3743L15.4373 19.6873C16.2147 20.0337 17.0894 20.0944 17.9071 19.8588C18.7249 19.6231 19.4333 19.1062 19.9075 18.3992L20.8253 17.0315C20.9689 16.817 21.0271 16.5565 20.9883 16.3012C20.9495 16.046 20.8166 15.8145 20.6157 15.6524L17.5062 13.1422C17.3979 13.0549 17.2731 12.9903 17.1392 12.9524C17.0054 12.9145 16.8653 12.9041 16.7273 12.9218C16.5893 12.9394 16.4563 12.9848 16.3363 13.0552C16.2163 13.1255 16.1117 13.2195 16.0289 13.3313L15.0667 14.6298C12.5968 13.4092 10.5977 11.4085 9.3783 8.93689L10.675 7.97414C10.7867 7.89125 10.8806 7.78662 10.9509 7.66653C11.0212 7.54644 11.0666 7.41337 11.0842 7.2753C11.1019 7.13724 11.0914 6.99703 11.0536 6.8631C11.0157 6.72916 10.9512 6.60427 10.8639 6.49591L8.35522 3.38451C8.19323 3.18354 7.96191 3.05056 7.70682 3.01174C7.45173 2.97293 7.19136 3.03111 6.97699 3.17481L5.60084 4.09831C4.88994 4.57533 4.37137 5.28938 4.1375 6.11325C3.90362 6.93712 3.96964 7.81732 4.32379 8.59704L4.85959 9.77569Z" fill="white"/>
<path d="M19.6618 4.02969C19.7498 3.94128 19.8567 3.87893 19.959 3.85633C20.0613 3.83374 20.1507 3.85276 20.2074 3.9092C20.2641 3.96565 20.2836 4.0549 20.2615 4.15733C20.2394 4.25975 20.1776 4.36695 20.0896 4.45535L18.4577 6.10249L19.9549 7.59233C19.9972 7.63445 20.019 7.69515 20.0177 7.76674C20.0164 7.83834 19.992 7.91762 19.9476 7.99459C19.9032 8.07155 19.8408 8.14274 19.7682 8.19916C19.6957 8.25558 19.6163 8.2947 19.54 8.31159L15.1756 9.27543C15.0734 9.29795 14.9841 9.27891 14.9274 9.22251C14.8708 9.16611 14.8513 9.07695 14.8733 8.97463L15.8155 4.60545C15.832 4.5291 15.8707 4.4495 15.9268 4.37669C15.9828 4.30387 16.0537 4.24111 16.1304 4.19634C16.2072 4.15156 16.2864 4.12678 16.3579 4.12511C16.4295 4.12345 16.4903 4.14498 16.5327 4.18699L18.0299 5.67683L19.6618 4.02969Z" fill="white"/>
</svg>
