<svg width="28" height="24" viewBox="0 0 28 24" fill="none" xmlns="http://www.w3.org/2000/svg">
<path d="M4.59169 5C3.68332 5 2.81215 5.30213 2.16983 5.83991C1.52752 6.3777 1.16667 7.1071 1.16667 7.86765V17.1324C1.16667 17.8929 1.52752 18.6223 2.16983 19.1601C2.81215 19.6979 3.68332 20 4.59169 20H14.6033C15.5117 20 16.3828 19.6979 17.0252 19.1601C17.6675 18.6223 18.0283 17.8929 18.0283 17.1324V7.86765C18.0283 7.1071 17.6675 6.3777 17.0252 5.83991C16.3828 5.30213 15.5117 5 14.6033 5H4.59169ZM23.4272 18.3615L19.6091 15.2291V9.85294L23.4156 6.65176C24.245 5.95471 25.6667 6.44618 25.6667 7.43V17.5735C25.6667 18.5512 24.2608 19.0453 23.4272 18.3615Z" fill="#FFFAFA"/>
<path d="M11.6592 10.0323C11.7472 9.94386 11.8541 9.88151 11.9564 9.85891C12.0587 9.83632 12.1481 9.85534 12.2048 9.91178C12.2615 9.96823 12.281 10.0575 12.2589 10.1599C12.2368 10.2623 12.175 10.3695 12.087 10.4579L10.4551 12.1051L11.9523 13.5949C11.9946 13.637 12.0164 13.6977 12.0151 13.7693C12.0138 13.8409 11.9894 13.9202 11.945 13.9972C11.9006 14.0741 11.8382 14.1453 11.7656 14.2017C11.6931 14.2582 11.6137 14.2973 11.5374 14.3142L7.17299 15.278C7.07077 15.3005 6.98152 15.2815 6.92484 15.2251C6.86816 15.1687 6.84868 15.0795 6.87069 14.9772L7.81287 10.608C7.82938 10.5317 7.86811 10.4521 7.92417 10.3793C7.98023 10.3064 8.05111 10.2437 8.12785 10.1989C8.20459 10.1541 8.28375 10.1294 8.35534 10.1277C8.42693 10.126 8.48773 10.1476 8.53006 10.1896L10.0273 11.6794L11.6592 10.0323Z" fill="black"/>
</svg>
