<svg width="24" height="24" viewBox="0 0 24 24" fill="none" xmlns="http://www.w3.org/2000/svg">
<path d="M4.85959 9.77569C6.8416 14.0945 10.3634 17.5174 14.7353 19.3743L15.4373 19.6873C16.2147 20.0337 17.0894 20.0944 17.9071 19.8588C18.7249 19.6231 19.4333 19.1062 19.9075 18.3992L20.8253 17.0315C20.9689 16.817 21.0271 16.5565 20.9883 16.3012C20.9495 16.046 20.8166 15.8145 20.6157 15.6524L17.5062 13.1422C17.3979 13.0549 17.2731 12.9903 17.1392 12.9524C17.0054 12.9145 16.8653 12.9041 16.7273 12.9218C16.5893 12.9394 16.4563 12.9848 16.3363 13.0552C16.2163 13.1255 16.1117 13.2195 16.0289 13.3313L15.0667 14.6298C12.5968 13.4092 10.5977 11.4085 9.3783 8.93689L10.675 7.97414C10.7867 7.89125 10.8806 7.78662 10.9509 7.66653C11.0212 7.54644 11.0666 7.41337 11.0842 7.2753C11.1019 7.13724 11.0914 6.99703 11.0536 6.8631C11.0157 6.72916 10.9512 6.60427 10.8639 6.49591L8.35522 3.38451C8.19323 3.18354 7.96191 3.05056 7.70682 3.01174C7.45173 2.97293 7.19136 3.03111 6.97699 3.17481L5.60084 4.09831C4.88994 4.57533 4.37137 5.28938 4.1375 6.11325C3.90362 6.93712 3.96964 7.81732 4.32379 8.59704L4.85959 9.77569Z" fill="white"/>
<path d="M19.8947 8.38952C19.9617 8.45659 19.9994 8.54755 19.9994 8.64239C19.9994 8.73723 19.9617 8.82819 19.8947 8.89526C19.8276 8.96232 19.7366 9 19.6418 9C19.5469 9 19.456 8.96232 19.3889 8.89526L17.5 7.00589L15.6105 8.89466C15.5434 8.96173 15.4525 8.9994 15.3576 8.9994C15.2628 8.9994 15.1718 8.96173 15.1047 8.89466C15.0377 8.8276 15 8.73664 15 8.6418C15 8.54695 15.0377 8.45599 15.1047 8.38893L16.9942 6.50015L15.1053 4.61078C15.0383 4.54371 15.0006 4.45275 15.0006 4.35791C15.0006 4.26306 15.0383 4.1721 15.1053 4.10504C15.1724 4.03797 15.2634 4.0003 15.3582 4.0003C15.4531 4.0003 15.544 4.03797 15.6111 4.10504L17.5 5.99441L19.3895 4.10474C19.4566 4.03768 19.5475 4 19.6424 4C19.7372 4 19.8282 4.03768 19.8953 4.10474C19.9623 4.17181 20 4.26277 20 4.35761C20 4.45245 19.9623 4.54341 19.8953 4.61048L18.0058 6.50015L19.8947 8.38952Z" fill="white"/>
</svg>
