<svg width="28" height="24" viewBox="0 0 28 24" fill="none" xmlns="http://www.w3.org/2000/svg">
<path d="M4.59169 5C3.68332 5 2.81215 5.30213 2.16983 5.83991C1.52752 6.3777 1.16667 7.1071 1.16667 7.86765V17.1324C1.16667 17.8929 1.52752 18.6223 2.16983 19.1601C2.81215 19.6979 3.68332 20 4.59169 20H14.6033C15.5117 20 16.3828 19.6979 17.0252 19.1601C17.6675 18.6223 18.0283 17.8929 18.0283 17.1324V7.86765C18.0283 7.1071 17.6675 6.3777 17.0252 5.83991C16.3828 5.30213 15.5117 5 14.6033 5H4.59169ZM23.4272 18.3615L19.6091 15.2291V9.85294L23.4156 6.65176C24.245 5.95471 25.6667 6.44618 25.6667 7.43V17.5735C25.6667 18.5512 24.2608 19.0453 23.4272 18.3615Z" fill="#F80101"/>
<path d="M12.8525 15.1453C12.9464 15.2392 12.9992 15.3666 12.9992 15.4993C12.9992 15.6321 12.9464 15.7595 12.8525 15.8534C12.7586 15.9473 12.6313 16 12.4985 16C12.3657 16 12.2383 15.9473 12.1444 15.8534L9.5 13.2082L6.85472 15.8525C6.76082 15.9464 6.63347 15.9992 6.50068 15.9992C6.36789 15.9992 6.24054 15.9464 6.14665 15.8525C6.05275 15.7586 6 15.6313 6 15.4985C6 15.3657 6.05275 15.2384 6.14665 15.1445L8.79193 12.5002L6.14748 9.85509C6.05358 9.7612 6.00083 9.63385 6.00083 9.50107C6.00083 9.36829 6.05358 9.24095 6.14748 9.14705C6.24138 9.05316 6.36873 9.00042 6.50152 9.00042C6.63431 9.00042 6.76166 9.05316 6.85555 9.14705L9.5 11.7922L12.1453 9.14664C12.2392 9.05275 12.3665 9 12.4993 9C12.6321 9 12.7595 9.05275 12.8534 9.14664C12.9472 9.24053 13 9.36787 13 9.50065C13 9.63344 12.9472 9.76078 12.8534 9.85467L10.2081 12.5002L12.8525 15.1453Z" fill="white"/>
</svg>
