<svg width="28" height="24" viewBox="0 0 28 24" fill="none" xmlns="http://www.w3.org/2000/svg">
<path d="M4.59169 5C3.68332 5 2.81215 5.30213 2.16983 5.83991C1.52752 6.3777 1.16667 7.1071 1.16667 7.86765V17.1324C1.16667 17.8929 1.52752 18.6223 2.16983 19.1601C2.81215 19.6979 3.68332 20 4.59169 20H14.6033C15.5117 20 16.3828 19.6979 17.0252 19.1601C17.6675 18.6223 18.0283 17.8929 18.0283 17.1324V7.86765C18.0283 7.1071 17.6675 6.3777 17.0252 5.83991C16.3828 5.30213 15.5117 5 14.6033 5H4.59169ZM23.4272 18.3615L19.6091 15.2291V9.85294L23.4156 6.65176C24.245 5.95471 25.6667 6.44618 25.6667 7.43V17.5735C25.6667 18.5512 24.2608 19.0453 23.4272 18.3615Z" fill="#FFFAFA"/>
<path d="M7.46752 15.0981C7.37925 15.1862 7.27213 15.2482 7.16974 15.2704C7.06735 15.2926 6.97807 15.2733 6.92154 15.2166C6.86502 15.16 6.84587 15.0707 6.86832 14.9683C6.89078 14.866 6.95298 14.759 7.04126 14.6709L8.67905 13.0296L7.18712 11.5344C7.14505 11.4922 7.12343 11.4314 7.12499 11.3598C7.12656 11.2882 7.15123 11.209 7.1959 11.1322C7.24057 11.0554 7.30323 10.9844 7.37596 10.9283C7.4487 10.8721 7.52825 10.8333 7.60457 10.8167L11.9724 9.86835C12.0747 9.8462 12.1639 9.86555 12.2204 9.92216C12.2769 9.97876 12.296 10.068 12.2737 10.1702L11.3159 14.536C11.2991 14.6123 11.2601 14.6918 11.2038 14.7644C11.1475 14.837 11.0764 14.8995 10.9995 14.944C10.9226 14.9885 10.8433 15.013 10.7717 15.0144C10.7002 15.0158 10.6394 14.9941 10.5972 14.9519L9.10531 13.4568L7.46752 15.0981Z" fill="#040404"/>
</svg>
