<svg width="24" height="24" viewBox="0 0 24 24" fill="none" xmlns="http://www.w3.org/2000/svg">
<path d="M4.85959 9.77569C6.8416 14.0945 10.3634 17.5174 14.7353 19.3743L15.4373 19.6873C16.2147 20.0337 17.0894 20.0944 17.9071 19.8588C18.7249 19.6231 19.4333 19.1062 19.9075 18.3992L20.8253 17.0315C20.9689 16.817 21.0271 16.5565 20.9883 16.3012C20.9495 16.046 20.8166 15.8145 20.6157 15.6524L17.5062 13.1422C17.3979 13.0549 17.2731 12.9903 17.1392 12.9524C17.0054 12.9145 16.8653 12.9041 16.7273 12.9218C16.5893 12.9394 16.4563 12.9848 16.3363 13.0552C16.2163 13.1255 16.1117 13.2195 16.0289 13.3313L15.0667 14.6298C12.5968 13.4092 10.5977 11.4085 9.3783 8.93689L10.675 7.97414C10.7867 7.89125 10.8806 7.78662 10.9509 7.66653C11.0212 7.54644 11.0666 7.41337 11.0842 7.2753C11.1019 7.13724 11.0914 6.99703 11.0536 6.8631C11.0157 6.72916 10.9512 6.60427 10.8639 6.49591L8.35522 3.38451C8.19323 3.18354 7.96191 3.05056 7.70682 3.01174C7.45173 2.97293 7.19136 3.03111 6.97699 3.17481L5.60084 4.09831C4.88994 4.57533 4.37137 5.28938 4.1375 6.11325C3.90362 6.93712 3.96964 7.81732 4.32379 8.59704L4.85959 9.77569Z" fill="white"/>
<path d="M15.4675 9.09809C15.3792 9.18618 15.2721 9.24815 15.1697 9.27038C15.0673 9.29261 14.9781 9.27328 14.9215 9.21663C14.865 9.15998 14.8459 9.07066 14.8683 8.96832C14.8908 8.86597 14.953 8.75899 15.0413 8.67091L16.679 7.02958L15.1871 5.53443C15.145 5.49215 15.1234 5.43138 15.125 5.35979C15.1266 5.2882 15.1512 5.209 15.1959 5.1322C15.2406 5.0554 15.3032 4.98443 15.376 4.92827C15.4487 4.87211 15.5282 4.83326 15.6046 4.81665L19.9724 3.86835C20.0747 3.8462 20.1639 3.86555 20.2204 3.92216C20.2769 3.97876 20.296 4.06798 20.2737 4.17023L19.3159 8.53603C19.2991 8.61231 19.2601 8.69178 19.2038 8.76439C19.1475 8.83701 19.0764 8.89951 18.9995 8.94401C18.9226 8.98852 18.8433 9.01302 18.7717 9.01443C18.7001 9.01584 18.6394 8.99409 18.5972 8.95193L17.1053 7.45677L15.4675 9.09809Z" fill="white"/>
</svg>
